<svg version="1.1" id="Layer_1" xmlns="http://www.w3.org/2000/svg" xmlns:xlink="http://www.w3.org/1999/xlink" x="0px" y="0px" viewBox="0 0 24 24" enable-background="new 0 0 24 24" xml:space="preserve">
<g>
	<path fill="#000000" d="M23.106636,19.1361694C23.492012,17.3695679,24.0000076,13.0723267,24.0000076,12
		c0-6.6166992-5.3828125-12-12-12s-12,5.3833008-12,12c0,1.0716553,0.5073242,5.3642578,0.8926392,7.1329346
		c-0.0214844,0.0095825-0.0443115,0.0145874-0.0654907,0.0252686c-0.3564453,0.1791992-0.6230469,0.4873047-0.75,0.8676758
		c-0.2617188,0.7841797,0.1640625,1.6352539,0.9482422,1.8974609C1.2802813,22.0078125,7.3222733,24,12.0000076,24
		c6.2675781,0,10.9150391-2.0429688,11.109375-2.1293945c0.7548828-0.3354492,1.0966797-1.2231445,0.7617188-1.9804688
		C23.7140579,19.5380859,23.4342728,19.2814331,23.106636,19.1361694z M12.0000076,1c6.0654297,0,11,4.9345703,11,11
		c0,1.1245117-0.5595703,5.6056519-0.9009399,7.0610352c-0.0697021,0.0192871-0.1395874,0.0377808-0.2074585,0.0678711
		C21.849617,19.1479492,17.5791092,21,12.0000076,21c-4.1982422,0-9.9677734-1.9038086-10.0253906-1.9228516
		c-0.024292-0.0081787-0.0493774-0.0101318-0.0738525-0.0170288C1.5593951,17.6038818,1.0000079,13.1242676,1.0000079,12
		C1.0000079,5.9345703,5.9345779,1,12.0000076,1z M22.7021561,20.9570313C22.5156326,21.0405273,18.0566483,23,12.0000076,23
		c-4.5175781,0-10.4101563-1.9428711-10.6582031-2.0253906c-0.2607422-0.0874023-0.4033204-0.3710938-0.3154297-0.6323242
		c0.0419922-0.1279297,0.1308594-0.230957,0.25-0.2905273c0.0693359-0.0351563,0.1445313-0.0527344,0.2207031-0.0527344
		c0.0537109,0,0.1083984,0.0087891,0.1611328,0.0263672C1.7177813,20.0454102,7.6318436,22,12.0000076,22
		c5.8144531,0,10.2519531-1.9370117,10.296875-1.956543c0.2509766-0.1118164,0.5478516,0.0024414,0.6601563,0.2529297
		C23.068367,20.5488281,22.9550858,20.8447266,22.7021561,20.9570313z" id="id_101"></path>
	<path fill="#7395fa" d="M3.0654376,18.4121094C5.0888748,19.0048828,8.9394608,20,12.0000076,20
		c4.0039063,0,7.3222656-0.9467773,8.9443359-1.5112305c0.171875-0.0595703,0.296875-0.2075195,0.328125-0.3862305
		c0.1021118-0.5837402,0.2172852-1.3543091,0.3255615-2.1561279c0.0206299-0.0899658,0.0291748-0.1834717,0.0372314-0.2775879
		C21.834053,14.1601563,22.0000076,12.6018677,22.0000076,12c0-0.730957-0.0878906-1.4833984-0.2607422-2.2358398
		c-0.0332031-0.1455078-0.1298828-0.2685547-0.2636719-0.3354492l-0.6679688-0.3334961
		C20.2724686,8.5126953,16.8427811,5,12.0000076,5S3.7275469,8.5126953,3.1923907,9.0952148L2.5244219,9.4287109
		C2.3906329,9.4956055,2.2939532,9.6186523,2.2607501,9.7641602C2.0878985,10.5166016,2.0000079,11.269043,2.0000079,12
		c0,0.9453125,0.4082031,4.2446289,0.7128906,6.0170898C2.7461016,18.2050781,2.8818438,18.3583984,3.0654376,18.4121094z
		 M3.1855547,10.2163086l0.5380859-0.269043c0.0576172-0.0292969,0.1103516-0.0693359,0.1523438-0.1181641
		C3.9101641,9.7910156,7.2812576,6,12.0000076,6c4.7050781,0,8.0908203,3.7915039,8.1240234,3.8295898
		c0.0429688,0.0483398,0.0947266,0.0888672,0.1523438,0.1176758l0.5380859,0.269043
		C20.9374981,10.8188477,21.0000076,11.4179688,21.0000076,12c0,0.5501099-0.168335,2.0979004-0.3643799,3.5827026
		C20.5914383,16.0933838,20.1747513,16.5,19.6523514,16.5h-3.8060303c-0.1744385-0.293335-0.4807739-0.5-0.8463135-0.5h-1
		c-0.5517578,0-1,0.4487305-1,1s0.4482422,1,1,1h1c0.3655396,0,0.671875-0.206665,0.8463135-0.5h3.8060303
		c0.2575684,0,0.5021362-0.0530396,0.7285156-0.1421509c-0.0145874,0.0925293-0.0297852,0.1950684-0.0439453,0.281311
		C18.6923904,18.1875,15.6396561,19,12.0000076,19c-2.8681641,0-6.6015625-0.9604492-8.3525391-1.4604492
		C3.3642657,15.7929688,3.0000079,12.8115234,3.0000079,12C3.0000079,11.4179688,3.0624981,10.8188477,3.1855547,10.2163086z
		 M15.0009842,17l-0.0009766,0.5V17H15.0009842z" id="id_102"></path>
	<path fill="#9eb6ff" d="M5.0048904,11.3164063c0.1367188,0,0.2714844-0.0551758,0.3701172-0.1635742
		C5.4921951,11.0239258,8.2793045,8,12.0000076,8c0.2763672,0,0.5-0.2236328,0.5-0.5s-0.2236328-0.5-0.5-0.5
		c-4.1582031,0-7.2363281,3.3383789-7.3652344,3.4804688c-0.1855469,0.2045898-0.1699219,0.5205078,0.0341797,0.706543
		C4.7646561,11.2739258,4.8847733,11.3164063,5.0048904,11.3164063z" id="id_103"></path>
</g>
<g>
</g>
<g>
</g>
<g>
</g>
<g>
</g>
<g>
</g>
<g>
</g>
<g>
</g>
<g>
</g>
<g>
</g>
<g>
</g>
<g>
</g>
<g>
</g>
<g>
</g>
<g>
</g>
<g>
</g>
</svg>